<svg width="975" height="366" viewBox="0 0 975 366" fill="none" xmlns="http://www.w3.org/2000/svg">
<rect x="30" y="26" width="231" height="313" rx="34" fill="#D6E7F9" stroke="#241F1F" stroke-width="4"/>
<mask id="path-3-inside-1_211_141" fill="white">
<path fill-rule="evenodd" clip-rule="evenodd" d="M90.9999 285C89.9901 285 89.8946 286.423 90.8399 286.778C101.45 290.761 109 300.999 109 313C109 325.001 101.45 335.239 90.8399 339.222C89.8946 339.577 89.9901 341 90.9999 341H283C298.464 341 311 328.464 311 313C311 297.536 298.464 285 283 285H90.9999Z"/>
</mask>
<path fill-rule="evenodd" clip-rule="evenodd" d="M90.9999 285C89.9901 285 89.8946 286.423 90.8399 286.778C101.45 290.761 109 300.999 109 313C109 325.001 101.45 335.239 90.8399 339.222C89.8946 339.577 89.9901 341 90.9999 341H283C298.464 341 311 328.464 311 313C311 297.536 298.464 285 283 285H90.9999Z" fill="#D8E7FA"/>
<!-- <path d="M90.8399 339.222L89.434 335.477L90.8399 339.222ZM89.434 290.523C98.5343 293.939 105 302.72 105 313H113C113 299.278 104.365 287.583 92.2458 283.033L89.434 290.523ZM105 313C105 323.28 98.5343 332.061 89.434 335.477L92.2458 342.967C104.365 338.417 113 326.722 113 313H105ZM90.9999 345H283V337H90.9999V345ZM283 345C300.673 345 315 330.673 315 313H307C307 326.255 296.255 337 283 337V345ZM315 313C315 295.327 300.673 281 283 281V289C296.255 289 307 299.745 307 313H315ZM283 281H90.9999V289H283V281ZM89.434 335.477C87.0908 336.357 86.0433 338.607 86.1994 340.562C86.2789 341.558 86.6759 342.671 87.5592 343.572C88.4939 344.526 89.7404 345 90.9999 345V337C91.7544 337 92.6103 337.296 93.2726 337.972C93.8836 338.596 94.1265 339.331 94.174 339.926C94.2663 341.082 93.6437 342.442 92.2458 342.967L89.434 335.477ZM90.9999 281C89.7404 281 88.4939 281.474 87.5592 282.428C86.6759 283.329 86.2789 284.442 86.1994 285.438C86.0433 287.393 87.0908 289.643 89.434 290.523L92.2458 283.033C93.6437 283.558 94.2663 284.918 94.174 286.074C94.1265 286.669 93.8836 287.404 93.2726 288.028C92.6103 288.704 91.7544 289 90.9999 289V281Z" fill="#241F1F" mask="url(#path-3-inside-1_211_141)"/> -->
<line x1="98.6975" y1="139.61" x2="138.697" y2="108.61" stroke="black" stroke-width="0.987729"/>
<line x1="71.5884" y1="195.716" x2="91.5884" y2="166.716" stroke="black"/>
<line x1="171.562" y1="196.758" x2="187.562" y2="167.758" stroke="black"/>
<line x1="121.573" y1="196.259" x2="104.573" y2="168.259" stroke="black"/>
<line x1="221.588" y1="196.284" x2="201.588" y2="167.284" stroke="black"/>
<line x1="193.694" y1="140.395" x2="153.694" y2="109.395" stroke="black"/>
<path fill-rule="evenodd" clip-rule="evenodd" d="M162.322 105.258C162.322 114.237 155.043 121.516 146.064 121.516C137.085 121.516 129.806 114.237 129.806 105.258C129.806 96.279 137.085 89 146.064 89C155.043 89 162.322 96.279 162.322 105.258ZM146.287 116.796L152.678 106.942L146.287 110.915V116.796ZM145.841 116.795L139.303 106.717L145.792 110.795L145.841 110.874V116.795ZM146.287 109.604L153.135 105.347L146.287 102.703V109.604ZM145.841 102.73V109.511L139.158 105.31L145.841 102.73ZM146.287 102.226L153.106 104.859L146.287 94.3457V102.226ZM145.841 94.3459V102.253L138.999 104.894L145.841 94.3459Z" fill="#241F1F"/>
<path fill-rule="evenodd" clip-rule="evenodd" d="M115.516 153.258C115.516 162.237 108.237 169.516 99.2581 169.516C90.279 169.516 83 162.237 83 153.258C83 144.279 90.279 137 99.2581 137C108.237 137 115.516 144.279 115.516 153.258ZM99.4809 164.796L105.872 154.942L99.4809 158.915V164.796ZM99.0355 164.795L92.4978 154.717L98.9863 158.795L99.0355 158.874V164.795ZM99.4809 157.604L106.33 153.347L99.4809 150.703V157.604ZM99.0355 150.73V157.511L92.3522 153.31L99.0355 150.73ZM99.4809 150.226L106.3 152.859L99.4809 142.346V150.226ZM99.0355 142.346V150.253L92.1933 152.894L99.0355 142.346Z" fill="#241F1F"/>
<path fill-rule="evenodd" clip-rule="evenodd" d="M210.516 153.258C210.516 162.237 203.237 169.516 194.258 169.516C185.279 169.516 178 162.237 178 153.258C178 144.279 185.279 137 194.258 137C203.237 137 210.516 144.279 210.516 153.258ZM194.481 164.796L200.872 154.942L194.481 158.915V164.796ZM194.035 164.795L187.498 154.717L193.986 158.795L194.035 158.874V164.795ZM194.481 157.604L201.33 153.347L194.481 150.703V157.604ZM194.035 150.73V157.511L187.352 153.31L194.035 150.73ZM194.481 150.226L201.3 152.859L194.481 142.346V150.226ZM194.035 142.346V150.253L187.193 152.894L194.035 142.346Z" fill="#241F1F"/>
<path fill-rule="evenodd" clip-rule="evenodd" d="M188.516 207.258C188.516 216.237 181.237 223.516 172.258 223.516C163.279 223.516 156 216.237 156 207.258C156 198.279 163.279 191 172.258 191C181.237 191 188.516 198.279 188.516 207.258ZM172.481 218.796L178.872 208.942L172.481 212.915V218.796ZM172.035 218.796L165.498 208.717L171.986 212.795L172.035 212.874V218.796ZM172.481 211.604L179.33 207.347L172.481 204.703V211.604ZM172.035 204.73V211.511L165.352 207.31L172.035 204.73ZM172.481 204.226L179.3 206.859L172.481 196.346V204.226ZM172.035 196.346V204.253L165.193 206.894L172.035 196.346Z" fill="#241F1F"/>
<path fill-rule="evenodd" clip-rule="evenodd" d="M87.5162 207.258C87.5162 216.237 80.2372 223.516 71.2581 223.516C62.279 223.516 55 216.237 55 207.258C55 198.279 62.279 191 71.2581 191C80.2372 191 87.5162 198.279 87.5162 207.258ZM71.4809 218.796L77.8722 208.942L71.4809 212.915V218.796ZM71.0354 218.796L64.4977 208.717L70.9863 212.795L71.0354 212.874V218.796ZM71.4809 211.604L78.3295 207.347L71.4809 204.703V211.604ZM71.0354 204.73V211.511L64.3522 207.31L71.0354 204.73ZM71.4809 204.226L78.3 206.859L71.4809 196.346V204.226ZM71.0354 196.346V204.253L64.1933 206.894L71.0354 196.346Z" fill="#241F1F"/>
<path fill-rule="evenodd" clip-rule="evenodd" d="M238.516 207.258C238.516 216.237 231.237 223.516 222.258 223.516C213.279 223.516 206 216.237 206 207.258C206 198.279 213.279 191 222.258 191C231.237 191 238.516 198.279 238.516 207.258ZM222.481 218.796L228.872 208.942L222.481 212.915V218.796ZM222.035 218.796L215.498 208.717L221.986 212.795L222.035 212.874V218.796ZM222.481 211.604L229.329 207.347L222.481 204.703V211.604ZM222.035 204.73V211.511L215.352 207.31L222.035 204.73ZM222.481 204.226L229.3 206.859L222.481 196.346V204.226ZM222.035 196.346V204.253L215.193 206.894L222.035 196.346Z" fill="#241F1F"/>
<path fill-rule="evenodd" clip-rule="evenodd" d="M138.516 207.258C138.516 216.237 131.237 223.516 122.258 223.516C113.279 223.516 106 216.237 106 207.258C106 198.279 113.279 191 122.258 191C131.237 191 138.516 198.279 138.516 207.258ZM122.481 218.796L128.872 208.942L122.481 212.915V218.796ZM122.035 218.795L115.498 208.717L121.986 212.795L122.035 212.874V218.795ZM122.481 211.604L129.33 207.347L122.481 204.703V211.604ZM122.035 204.73V211.511L115.352 207.31L122.035 204.73ZM122.481 204.226L129.3 206.859L122.481 196.346V204.226ZM122.035 196.346V204.253L115.193 206.894L122.035 196.346Z" fill="#241F1F"/>
<rect x="30" y="25" width="231" height="313" rx="34" fill="#D6E7F9" stroke="#241F1F" stroke-width="4"/>
<mask id="path-19-inside-2_211_141" fill="white">
<path fill-rule="evenodd" clip-rule="evenodd" d="M90.9999 284C89.9901 284 89.8946 285.423 90.8399 285.778C101.45 289.761 109 299.999 109 312C109 324.001 101.45 334.239 90.8399 338.222C89.8946 338.577 89.9901 340 90.9999 340H283C298.464 340 311 327.464 311 312C311 296.536 298.464 284 283 284H90.9999Z"/>
</mask>
<path fill-rule="evenodd" clip-rule="evenodd" d="M90.9999 284C89.9901 284 89.8946 285.423 90.8399 285.778C101.45 289.761 109 299.999 109 312C109 324.001 101.45 334.239 90.8399 338.222C89.8946 338.577 89.9901 340 90.9999 340H283C298.464 340 311 327.464 311 312C311 296.536 298.464 284 283 284H90.9999Z" fill="#D8E7FA"/>
<path d="M90.8399 338.222L89.434 334.477L90.8399 338.222ZM89.434 289.523C98.5343 292.939 105 301.72 105 312H113C113 298.278 104.365 286.583 92.2458 282.033L89.434 289.523ZM105 312C105 322.28 98.5343 331.061 89.434 334.477L92.2458 341.967C104.365 337.417 113 325.722 113 312H105ZM90.9999 344H283V336H90.9999V344ZM283 344C300.673 344 315 329.673 315 312H307C307 325.255 296.255 336 283 336V344ZM315 312C315 294.327 300.673 280 283 280V288C296.255 288 307 298.745 307 312H315ZM283 280H90.9999V288H283V280ZM89.434 334.477C87.0908 335.357 86.0433 337.607 86.1994 339.562C86.2789 340.558 86.6759 341.671 87.5592 342.572C88.4939 343.526 89.7404 344 90.9999 344V336C91.7544 336 92.6103 336.296 93.2726 336.972C93.8836 337.596 94.1265 338.331 94.174 338.926C94.2663 340.082 93.6437 341.442 92.2458 341.967L89.434 334.477ZM90.9999 280C89.7404 280 88.4939 280.474 87.5592 281.428C86.6759 282.329 86.2789 283.442 86.1994 284.438C86.0433 286.393 87.0908 288.643 89.434 289.523L92.2458 282.033C93.6437 282.558 94.2663 283.918 94.174 285.074C94.1265 285.669 93.8836 286.404 93.2726 287.028C92.6103 287.704 91.7544 288 90.9999 288V280Z" fill="#241F1F" mask="url(#path-19-inside-2_211_141)"/>
<path fill-rule="evenodd" clip-rule="evenodd" d="M94.6874 94.8437C94.6874 106.355 85.3554 115.687 73.8437 115.687C62.332 115.687 53 106.355 53 94.8437C53 83.332 62.332 74 73.8437 74C85.3554 74 94.6874 83.332 94.6874 94.8437ZM74.1293 109.636L82.3233 97.003L74.1293 102.097V109.636ZM73.5582 109.635L65.1766 96.7135L73.4952 101.942L73.5582 102.044V109.635ZM74.1293 100.416L82.9096 94.9576L74.1293 91.5681V100.416ZM73.5582 91.6025V100.296L64.99 94.91L73.5582 91.6025ZM74.1293 90.9566L82.8718 94.3315L74.1293 80.8534V90.9566ZM73.5582 80.8537V90.991L64.7862 94.3772L73.5582 80.8537Z" fill="#241F1F"/>
<path fill-rule="evenodd" clip-rule="evenodd" d="M94.6874 160.844C94.6874 172.355 85.3554 181.687 73.8437 181.687C62.332 181.687 53 172.355 53 160.844C53 149.332 62.332 140 73.8437 140C85.3554 140 94.6874 149.332 94.6874 160.844ZM74.1293 175.636L82.3233 163.003L74.1293 168.097V175.636ZM73.5582 175.635L65.1766 162.714L73.4952 167.942L73.5582 168.044V175.635ZM74.1293 166.416L82.9096 160.958L74.1293 157.568V166.416ZM73.5582 157.602V166.296L64.99 160.91L73.5582 157.602ZM74.1293 156.957L82.8718 160.332L74.1293 146.853V156.957ZM73.5582 146.854V156.991L64.7862 160.377L73.5582 146.854Z" fill="#241F1F"/>
<path fill-rule="evenodd" clip-rule="evenodd" d="M94.6874 226.844C94.6874 238.355 85.3554 247.687 73.8437 247.687C62.332 247.687 53 238.355 53 226.844C53 215.332 62.332 206 73.8437 206C85.3554 206 94.6874 215.332 94.6874 226.844ZM74.1293 241.636L82.3233 229.003L74.1293 234.097V241.636ZM73.5582 241.635L65.1766 228.714L73.4952 233.942L73.5582 234.044V241.635ZM74.1293 232.416L82.9096 226.958L74.1293 223.568V232.416ZM73.5582 223.602V232.296L64.99 226.91L73.5582 223.602ZM74.1293 222.957L82.8718 226.332L74.1293 212.853V222.957ZM73.5582 212.854V222.991L64.7862 226.377L73.5582 212.854Z" fill="#241F1F"/>
<rect x="111" y="85" width="128" height="20" rx="10" fill="#241F1F"/>
<rect x="111" y="151" width="128" height="20" rx="10" fill="#241F1F"/>
<rect x="111" y="217" width="128" height="20" rx="10" fill="#241F1F"/>
</svg>